<mxfile host="app.diagrams.net" modified="2020-06-10T16:02:23.790Z" agent="5.0 (Macintosh; Intel Mac OS X 10_15_5) AppleWebKit/537.36 (KHTML, like Gecko) Chrome/83.0.4103.61 Safari/537.36" etag="kdNd20hHRlxBHtDFEPfF" version="13.2.1" type="github">
  <diagram id="6UR49E0zUCKmJUAcSpAE" name="system-architecture">
    <mxGraphModel dx="1527" dy="891" grid="1" gridSize="10" guides="1" tooltips="1" connect="1" arrows="1" fold="1" page="1" pageScale="1" pageWidth="1100" pageHeight="850" math="0" shadow="0">
      <root>
        <mxCell id="DVUXWdo4HBKXd4HaU4E6-0" />
        <mxCell id="DVUXWdo4HBKXd4HaU4E6-1" parent="DVUXWdo4HBKXd4HaU4E6-0" />
        <mxCell id="LEx7qD2o24YmSId129aY-12" value="" style="rounded=1;whiteSpace=wrap;html=1;fillColor=#dae8fc;strokeColor=#6c8ebf;" parent="DVUXWdo4HBKXd4HaU4E6-1" vertex="1">
          <mxGeometry x="640" y="690" width="190" height="150" as="geometry" />
        </mxCell>
        <mxCell id="IR8gEMqMYILpRB2Ss4oT-7" value="" style="rounded=1;whiteSpace=wrap;html=1;fillColor=#fff2cc;strokeColor=#d6b656;" parent="DVUXWdo4HBKXd4HaU4E6-1" vertex="1">
          <mxGeometry x="600" y="360" width="250" height="135" as="geometry" />
        </mxCell>
        <mxCell id="IR8gEMqMYILpRB2Ss4oT-0" value="Actor" style="shape=image;html=1;verticalAlign=top;verticalLabelPosition=bottom;labelBackgroundColor=#ffffff;imageAspect=0;aspect=fixed;image=https://cdn0.iconfinder.com/data/icons/emoji-3-5/64/hand_phone_smartphone-128.png" parent="DVUXWdo4HBKXd4HaU4E6-1" vertex="1">
          <mxGeometry x="70" y="375" width="50" height="50" as="geometry" />
        </mxCell>
        <mxCell id="IR8gEMqMYILpRB2Ss4oT-5" value="Google Calendar&lt;br&gt;APIs" style="verticalLabelPosition=bottom;aspect=fixed;html=1;verticalAlign=top;strokeColor=none;align=center;outlineConnect=0;shape=mxgraph.citrix.calendar;" parent="DVUXWdo4HBKXd4HaU4E6-1" vertex="1">
          <mxGeometry x="690" y="700" width="75" height="100" as="geometry" />
        </mxCell>
        <mxCell id="IR8gEMqMYILpRB2Ss4oT-6" value="Host" style="verticalLabelPosition=bottom;html=1;verticalAlign=top;align=center;strokeColor=none;fillColor=#00BEF2;shape=mxgraph.azure.user;" parent="DVUXWdo4HBKXd4HaU4E6-1" vertex="1">
          <mxGeometry x="90" y="715" width="47.5" height="50" as="geometry" />
        </mxCell>
        <mxCell id="IR8gEMqMYILpRB2Ss4oT-8" value="Going Back to Work &lt;br&gt;Backend Services" style="text;html=1;align=center;verticalAlign=middle;resizable=0;points=[];autosize=1;" parent="DVUXWdo4HBKXd4HaU4E6-1" vertex="1">
          <mxGeometry x="665" y="500" width="120" height="30" as="geometry" />
        </mxCell>
        <mxCell id="IR8gEMqMYILpRB2Ss4oT-9" value="" style="shape=flexArrow;endArrow=classic;html=1;startArrow=block;" parent="DVUXWdo4HBKXd4HaU4E6-1" edge="1">
          <mxGeometry width="50" height="50" relative="1" as="geometry">
            <mxPoint x="727" y="540" as="sourcePoint" />
            <mxPoint x="727" y="690" as="targetPoint" />
          </mxGeometry>
        </mxCell>
        <mxCell id="IR8gEMqMYILpRB2Ss4oT-10" value="Admission Barcode" style="shape=image;html=1;verticalAlign=top;verticalLabelPosition=bottom;labelBackgroundColor=#ffffff;imageAspect=0;aspect=fixed;image=https://cdn0.iconfinder.com/data/icons/free-e-commerce-linear/1024/scanning-barcode-128.png" parent="DVUXWdo4HBKXd4HaU4E6-1" vertex="1">
          <mxGeometry x="280" y="408.5" width="34" height="34" as="geometry" />
        </mxCell>
        <mxCell id="LEx7qD2o24YmSId129aY-2" value="" style="shape=flexArrow;endArrow=classic;html=1;strokeColor=#000000;startArrow=block;" parent="DVUXWdo4HBKXd4HaU4E6-1" edge="1">
          <mxGeometry width="50" height="50" relative="1" as="geometry">
            <mxPoint x="190" y="740" as="sourcePoint" />
            <mxPoint x="640" y="740" as="targetPoint" />
          </mxGeometry>
        </mxCell>
        <mxCell id="LEx7qD2o24YmSId129aY-3" value="&lt;a href=&quot;https://support.google.com/a/answer/1033925&quot;&gt;Populates API Data Model&amp;nbsp;&lt;br&gt;(Building, Features and Resources)&lt;/a&gt;" style="edgeLabel;html=1;align=center;verticalAlign=middle;resizable=0;points=[];" parent="LEx7qD2o24YmSId129aY-2" vertex="1" connectable="0">
          <mxGeometry x="-0.2053" y="-2" relative="1" as="geometry">
            <mxPoint x="41" y="-22" as="offset" />
          </mxGeometry>
        </mxCell>
        <mxCell id="LEx7qD2o24YmSId129aY-5" value="" style="aspect=fixed;pointerEvents=1;shadow=0;dashed=0;html=1;strokeColor=none;labelPosition=center;verticalLabelPosition=bottom;verticalAlign=top;align=center;fillColor=#00188D;shape=mxgraph.azure.laptop" parent="DVUXWdo4HBKXd4HaU4E6-1" vertex="1">
          <mxGeometry x="70" y="455" width="50" height="30" as="geometry" />
        </mxCell>
        <mxCell id="LEx7qD2o24YmSId129aY-6" value="Reservation &lt;br&gt;Request" style="html=1;verticalLabelPosition=bottom;align=center;labelBackgroundColor=#ffffff;verticalAlign=top;strokeWidth=2;strokeColor=#0080F0;shadow=0;dashed=0;shape=mxgraph.ios7.icons.calendar;" parent="DVUXWdo4HBKXd4HaU4E6-1" vertex="1">
          <mxGeometry x="550" y="660" width="30" height="30" as="geometry" />
        </mxCell>
        <mxCell id="LEx7qD2o24YmSId129aY-7" value="" style="shape=flexArrow;endArrow=classic;html=1;startArrow=block;" parent="DVUXWdo4HBKXd4HaU4E6-1" edge="1">
          <mxGeometry width="50" height="50" relative="1" as="geometry">
            <mxPoint x="640" y="670" as="sourcePoint" />
            <mxPoint x="140" y="470" as="targetPoint" />
          </mxGeometry>
        </mxCell>
        <mxCell id="ki2Zh7Pq-nfiL1ydGcVm-2" value="" style="strokeColor=#dddddd;shadow=1;strokeWidth=1;rounded=1;absoluteArcSize=1;arcSize=2;" vertex="1" parent="DVUXWdo4HBKXd4HaU4E6-1">
          <mxGeometry x="730" y="375" width="100" height="60" as="geometry" />
        </mxCell>
        <mxCell id="ki2Zh7Pq-nfiL1ydGcVm-3" value="Cloud&#xa;SQL" style="dashed=0;connectable=0;html=1;fillColor=#5184F3;strokeColor=none;shape=mxgraph.gcp2.hexIcon;prIcon=cloud_sql;part=1;labelPosition=right;verticalLabelPosition=middle;align=left;verticalAlign=middle;spacingLeft=5;fontColor=#999999;fontSize=12;" vertex="1" parent="ki2Zh7Pq-nfiL1ydGcVm-2">
          <mxGeometry y="0.5" width="44" height="39" relative="1" as="geometry">
            <mxPoint x="5" y="-19.5" as="offset" />
          </mxGeometry>
        </mxCell>
        <mxCell id="ki2Zh7Pq-nfiL1ydGcVm-4" value="" style="strokeColor=#dddddd;shadow=1;strokeWidth=1;rounded=1;absoluteArcSize=1;arcSize=2;" vertex="1" parent="DVUXWdo4HBKXd4HaU4E6-1">
          <mxGeometry x="610" y="375" width="110" height="60" as="geometry" />
        </mxCell>
        <mxCell id="ki2Zh7Pq-nfiL1ydGcVm-5" value="Compute&#xa;Engine" style="dashed=0;connectable=0;html=1;fillColor=#5184F3;strokeColor=none;shape=mxgraph.gcp2.hexIcon;prIcon=compute_engine;part=1;labelPosition=right;verticalLabelPosition=middle;align=left;verticalAlign=middle;spacingLeft=5;fontColor=#999999;fontSize=12;" vertex="1" parent="ki2Zh7Pq-nfiL1ydGcVm-4">
          <mxGeometry y="0.5" width="44" height="39" relative="1" as="geometry">
            <mxPoint x="5" y="-19.5" as="offset" />
          </mxGeometry>
        </mxCell>
        <mxCell id="ki2Zh7Pq-nfiL1ydGcVm-6" value="Confirmation" style="html=1;verticalLabelPosition=bottom;align=center;labelBackgroundColor=#ffffff;verticalAlign=top;strokeWidth=2;strokeColor=#0080F0;shadow=0;dashed=0;shape=mxgraph.ios7.icons.calendar;" vertex="1" parent="DVUXWdo4HBKXd4HaU4E6-1">
          <mxGeometry x="190" y="412.5" width="30" height="30" as="geometry" />
        </mxCell>
      </root>
    </mxGraphModel>
  </diagram>
</mxfile>
